<svg width="372" height="208" viewBox="0 0 372 208" fill="none" xmlns="http://www.w3.org/2000/svg">
<path d="M367.6 3.5V171.1H353.1V20.2H32.5V3.5H367.6Z" fill="white"/>
<path d="M371.1 174.5H349.6V23.7H29V0H371.1V174.5ZM356.6 167.5H364.1V7H36V16.7H356.6V167.5Z" fill="black"/>
<path d="M353.1 20.2002V187.8H338.6V36.9002H18V20.2002H353.1Z" fill="white"/>
<path d="M356.6 191.3H335.1V40.4002H14.5V16.7002H356.6V191.3ZM342.1 184.3H349.6V23.7002H21.5V33.4002H342.1V184.3Z" fill="black"/>
<path d="M338.6 36.9004H3.5V204.5H338.6V36.9004Z" fill="white"/>
<path d="M342.1 208H0V33.4004H342.1V208ZM7 201H335.1V40.4004H7V201Z" fill="black"/>
</svg>
