<svg width="685" height="543" viewBox="0 0 685 543" fill="none" xmlns="http://www.w3.org/2000/svg">
<g clip-path="url(#clip0_201_4)">
<path d="M156.366 254.762C148.521 254.383 142.503 247.753 142.881 239.905C143.26 232.056 149.888 226.036 157.733 226.414C165.578 226.792 171.596 233.423 171.218 241.271C170.962 249.008 164.211 255.14 156.366 254.762ZM208.825 94.2061C178.521 119.045 148.333 143.889 118.034 168.611C115.557 215.104 113.08 261.598 110.598 308.208C138.606 335.859 166.614 363.51 194.51 391.038L617.569 411.441L631.884 114.609L208.825 94.2061Z" fill="white"/>
<path d="M620.355 414.511L193.198 393.91L107.491 309.35L107.553 308.061C110.019 261.802 112.485 215.543 114.95 169.285L115.046 167.293L116.023 166.518C146.327 141.68 176.515 116.835 206.814 92.1133L207.667 91.45L634.825 112.05L620.238 414.505L620.355 414.511ZM195.822 388.166L614.783 408.371L628.816 117.396L209.855 97.1913C180.164 121.473 150.59 145.76 120.894 170.158C118.456 215.831 116.025 261.387 113.587 307.061L195.822 388.166ZM156.225 257.69C146.74 257.233 139.502 249.135 139.954 239.764C140.411 230.275 148.507 223.034 157.874 223.486C167.359 223.943 174.597 232.041 174.145 241.412C173.81 250.789 165.709 258.148 156.225 257.69ZM157.598 229.225C151.392 228.926 146.114 233.72 145.814 239.929C145.515 246.137 150.307 251.417 156.513 251.716C162.719 252.016 167.997 247.221 168.296 241.013C168.713 234.81 163.803 229.525 157.598 229.225Z" fill="black"/>
<path d="M194.938 80.3868C164.634 105.226 134.446 130.07 104.147 154.792C101.67 201.285 99.1935 247.778 96.7109 294.389C124.719 322.04 152.727 349.691 180.623 377.219L603.682 397.621L617.997 100.789L194.938 80.3868Z" fill="white"/>
<path d="M606.469 400.691L179.428 380.096L93.7214 295.536L93.7836 294.247C96.1532 249.98 98.5227 205.712 100.898 161.328L101.282 153.362L102.258 152.587C132.563 127.748 162.751 102.904 193.05 78.1822L193.903 77.5189L621.06 98.119L606.469 400.691ZM181.936 374.347L600.896 394.552L614.929 103.577L195.968 83.3717C166.394 107.659 136.703 131.94 107.007 156.339L106.747 161.727C104.394 205.643 102.047 249.442 99.6947 293.358L181.936 374.347Z" fill="black"/>
<path d="M128.709 227.128C120.864 226.75 114.846 220.119 115.225 212.271C115.603 204.422 122.231 198.402 130.076 198.78C137.922 199.158 143.94 205.789 143.561 213.637C143.305 221.374 136.555 227.506 128.709 227.128ZM181.169 66.5724C150.864 91.4112 120.676 116.256 90.3775 140.977C87.9006 187.471 85.4237 233.964 82.9411 280.574C110.949 308.225 138.957 335.876 166.854 363.404L589.913 383.807L604.228 86.9749L181.169 66.5724Z" fill="white"/>
<path d="M592.699 386.877L165.541 366.277L79.8346 281.716L79.8967 280.427C82.2663 236.16 84.6359 191.892 87.0055 147.625L87.3896 139.659L88.3659 138.885C118.793 113.934 149.098 89.0953 179.285 64.2508L180.139 63.5875L607.296 84.1877L592.699 386.877ZM168.049 360.527L587.126 380.737L601.159 89.7623L182.198 69.5574C152.507 93.8388 122.934 118.126 93.2371 142.524L92.9772 147.913C90.6302 191.712 88.2776 235.628 85.9306 279.427L168.049 360.527ZM128.574 229.939C119.089 229.482 111.851 221.384 112.303 212.013C112.76 202.524 120.856 195.283 130.223 195.735C139.708 196.192 146.946 204.29 146.494 213.661C146.154 223.155 138.058 230.397 128.574 229.939ZM129.941 201.592C123.735 201.292 118.457 206.086 118.157 212.295C117.858 218.503 122.65 223.783 128.856 224.082C135.062 224.382 140.34 219.588 140.639 213.379C141.056 207.176 136.147 201.891 129.941 201.592Z" fill="black"/>
<path d="M59.9671 245.887C51.6534 245.486 44.6561 244.561 39.772 243.621C2.07099 236.872 -26.2112 219.775 -43.2992 206.622C-51.2189 200.487 -58.7591 193.783 -65.5685 186.527L-66.5772 185.539L-57.4773 123.398L-53.3482 127.824C-36.6146 145.89 -16.9013 160.578 4.98341 171.614C30.7645 184.598 58.5789 191.928 87.6068 193.562L87.3243 199.419C57.4711 197.862 28.9655 190.265 2.38168 176.889C-18.3603 166.496 -37.065 152.796 -53.398 136.157L-60.3753 183.49C-54.0061 190.138 -47.0287 196.345 -39.7889 201.978C-23.1468 214.639 4.2213 231.222 40.8742 237.804C50.1851 239.427 74.7902 242.727 101.509 236.266C115.998 232.738 123.969 228.074 127.241 221.069C127.9 219.575 129.86 215.443 128.161 211.721C125.934 206.8 119.165 206.003 118.819 205.869L119.57 200.035C121.321 200.237 130.052 201.715 133.56 209.281C136.317 215.402 133.558 221.492 132.643 223.443C127.4 234.814 114.042 239.219 102.994 241.974C86.9664 245.78 72.0277 246.468 59.9671 245.887Z" fill="black"/>
</g>
<g clip-path="url(#clip1_201_4)">
<path d="M135.06 265.422C126.809 263.211 121.941 254.777 124.153 246.522C126.365 238.268 134.797 233.397 143.049 235.608C151.3 237.819 156.167 246.253 153.956 254.508C151.9 262.672 143.311 267.633 135.06 265.422ZM227.833 106.87C189.897 126.283 152.084 145.729 114.181 165.019C100.829 213.864 87.4775 262.708 74.0927 311.676C97.486 347.522 120.879 383.369 144.183 419.059L589.13 538.282L672.781 226.093L227.833 106.87Z" fill="white"/>
<path d="M591.383 542.187L142.126 421.809L70.5275 312.173L70.8907 310.818C84.1765 262.22 97.4623 213.622 110.748 165.024L111.309 162.929L112.526 162.331C150.462 142.918 188.275 123.471 226.178 104.181L227.238 103.673L676.495 224.051L591.26 542.154L591.383 542.187ZM146.239 416.309L586.876 534.377L668.876 228.348L228.24 110.28C191.084 129.242 154.052 148.237 116.864 167.323C103.743 215.305 90.6553 263.164 77.5345 311.146L146.239 416.309ZM134.235 268.502C124.259 265.83 118.433 255.553 121.074 245.697C123.748 235.718 134.022 229.888 143.874 232.528C153.849 235.201 159.675 245.477 157.034 255.333C154.517 265.222 144.21 271.175 134.235 268.502ZM142.256 238.565C135.729 236.816 129.014 240.695 127.265 247.224C125.515 253.754 129.391 260.47 135.918 262.219C142.445 263.968 149.16 260.089 150.91 253.56C152.783 247.063 148.783 240.314 142.256 238.565Z" fill="black"/>
<path d="M216.26 88.9795C178.324 108.393 140.511 127.839 102.608 147.129C89.2557 195.973 75.9039 244.818 62.5191 293.786C85.9124 329.632 109.306 365.479 132.609 401.169L577.556 520.392L661.207 208.203L216.26 88.9795Z" fill="white"/>
<path d="M579.81 524.297L130.675 403.952L59.0772 294.316L59.4403 292.961C72.1649 246.457 84.8895 199.953 97.6471 153.326L99.8919 144.949L101.108 144.35C139.044 124.937 176.857 105.491 214.761 86.2009L215.821 85.6927L665.078 206.071L579.81 524.297ZM134.666 398.419L575.303 516.487L657.303 210.458L216.666 92.3895C179.634 111.385 142.479 130.347 105.29 149.432L103.772 155.1C91.1461 201.234 78.5536 247.245 65.928 293.379L134.666 398.419Z" fill="black"/>
<path d="M112.036 229.675C103.785 227.464 98.9172 219.03 101.129 210.775C103.341 202.521 111.774 197.65 120.025 199.861C128.276 202.072 133.143 210.506 130.932 218.761C128.876 226.925 120.287 231.886 112.036 229.675ZM204.81 71.1225C166.873 90.5358 129.06 109.982 91.1572 129.272C77.8054 178.117 64.4536 226.961 51.0687 275.929C74.4621 311.775 97.8555 347.622 121.159 383.312L566.106 502.535L649.757 190.346L204.81 71.1225Z" fill="white"/>
<path d="M568.359 506.44L119.102 386.062L47.5036 276.426L47.8667 275.071C60.5913 228.567 73.316 182.063 86.0406 135.56L88.2854 127.182L89.5017 126.584C127.594 107.08 165.53 87.667 203.343 68.2207L204.403 67.7125L653.661 188.091L568.359 506.44ZM123.092 380.529L563.852 498.63L645.852 192.601L205.216 74.5325C168.06 93.4947 131.028 112.49 93.8398 131.575L92.3213 137.243C79.7287 183.254 67.1032 229.388 54.5106 275.398L123.092 380.529ZM111.244 232.632C101.268 229.959 95.4422 219.683 98.0832 209.827C100.757 199.848 111.031 194.018 120.883 196.658C130.858 199.33 136.684 209.607 134.043 219.463C131.493 229.475 121.219 235.305 111.244 232.632ZM119.232 202.818C112.705 201.069 105.99 204.947 104.241 211.477C102.491 218.007 106.367 224.723 112.894 226.472C119.421 228.221 126.136 224.342 127.886 217.813C129.759 211.316 125.759 204.566 119.232 202.818Z" fill="black"/>
<path d="M34.648 233.764C25.9043 231.421 18.6802 228.825 13.7059 226.7C-24.8087 210.834 -50.9268 186.142 -66.0565 168.223C-73.0596 159.876 -79.5281 151.013 -85.0927 141.731L-85.937 140.448L-61.938 76.4986L-58.5698 82.1548C-44.9498 105.215 -27.3837 125.371 -6.66769 142.146C17.7403 161.89 45.6131 176.093 76.0887 184.523L74.4381 190.683C43.0675 182.146 14.5218 167.498 -10.6493 147.153C-30.2988 131.324 -47.0206 112.451 -60.5442 91.001L-78.8729 139.7C-73.6359 148.234 -67.651 156.44 -61.2548 164.096C-46.4857 181.39 -21.2208 205.326 16.2185 220.771C25.7406 224.643 51.1314 233.823 81.0192 233.117C97.2322 232.707 106.78 229.588 111.872 222.897C112.917 221.461 115.953 217.521 115.006 213.173C113.773 207.429 106.762 205.022 106.426 204.8L108.569 198.772C110.383 199.39 119.322 202.974 121.307 211.825C122.825 218.966 118.489 224.803 117.066 226.666C108.872 237.543 93.6594 239.145 81.282 239.525C63.3691 239.875 47.3327 237.163 34.648 233.764Z" fill="black"/>
</g>
<defs>
<clipPath id="clip0_201_4">
<rect width="697.165" height="329.311" fill="white" transform="translate(-60.1371 52) rotate(2.76102)"/>
</clipPath>
<clipPath id="clip1_201_4">
<rect width="758.219" height="358.15" fill="white" transform="translate(-48.304) rotate(15)"/>
</clipPath>
</defs>
</svg>
