<svg width="470" height="186" viewBox="0 0 470 186" fill="none" xmlns="http://www.w3.org/2000/svg">
<path d="M29.0047 186L29.0047 176.256L17.4028 176.256L17.4028 166.512L5.80095 166.512L5.80095 156.768L2.55744e-06 156.768L2.46575e-05 3.05176e-05L435.194 6.85353e-05L435.194 9.62075L446.796 9.62075L446.796 19.3648L458.398 19.3648L458.398 29.1088L470 29.1088L470 186L29.0047 186ZM429.023 6.04385L5.80097 6.04381L5.66507 150.844L429.023 150.601L429.023 6.04385ZM440.625 15.7879L435.194 15.7879L435.194 156.768L11.9722 156.768L11.9722 160.345L440.625 160.345L440.625 15.7879ZM452.103 25.5319L446.673 25.5319L446.673 166.512L23.5741 166.512L23.5741 170.089L452.227 170.089L452.227 25.5319L452.103 25.5319ZM463.705 35.2759L458.275 35.2759L458.275 176.256L35.1759 176.256L35.1759 179.833L463.829 179.833L463.829 35.2759L463.705 35.2759Z" fill="#0A0A0A"/>
<path d="M463.705 179.833L463.705 35.2761L458.275 35.2761L458.275 176.256L35.176 176.256L35.176 179.833L463.705 179.833Z" fill="white"/>
<path d="M452.104 170.089L452.104 25.5319L446.796 25.5319L446.796 166.512L23.5741 166.512L23.5741 170.089L452.104 170.089Z" fill="white"/>
<path d="M440.625 160.345L440.625 15.7878L435.194 15.7878L435.194 156.768L11.9722 156.768L11.9722 160.345L440.625 160.345Z" fill="white"/>
<path d="M429.336 150.844L11.7097 150.844L11.7097 5.82761L429.336 5.82764L429.336 150.844Z" fill="white"/>
</svg>
