<svg width="264" height="1115" viewBox="0 0 264 1115" fill="none" xmlns="http://www.w3.org/2000/svg">
<g clip-path="url(#clip0_10_3641)">
<path d="M14.9864 827.827L29.9193 830.46L26.936 847.378L41.8689 850.011L38.8857 866.93L53.8185 869.563L50.8353 886.482L65.7682 889.115L62.7147 906.432L77.6476 909.065L74.6644 925.984L1145.85 1114.86L1291.82 287.036L1276.88 284.403L1279.87 267.484L1264.93 264.851L1267.92 247.932L1252.99 245.299L1255.97 228.381L1241.04 225.748L1244.02 208.829L1229.09 206.196L1232.07 189.277L160.884 0.398089L14.9864 827.827ZM1282.45 293.594L1139.29 1105.5L84.0324 919.426L227.193 107.523L1282.45 293.594ZM1270.53 273.843L1268.96 282.8L220.668 97.9583L79.0515 901.103L72.0828 899.875L215.243 87.9716L1270.5 274.042L1270.53 273.843ZM1258.59 254.291L1257.01 263.248L208.718 78.4065L67.1369 881.352L60.1683 880.124L203.329 68.2207L1258.59 254.291ZM1246.67 234.54L1245.06 243.696L196.768 58.8546L55.1873 861.801L48.2186 860.572L191.379 48.6688L1246.64 234.739L1246.67 234.54ZM1234.52 214.953L1232.94 223.91L184.854 39.1037L43.2377 842.249L36.269 841.02L179.429 29.117L1234.49 215.152L1234.52 214.953ZM1222.57 195.401L1220.99 204.358L172.904 19.5519L31.3231 822.498L24.3545 821.269L167.515 9.36607L1222.57 195.401Z" fill="#0A0A0A"/>
<path d="M466.587 206.379C471.962 207.327 477.537 208.31 482.913 209.258C480.047 224.351 476.583 239.338 471.596 253.646C464.421 274.546 453.825 291.559 442.304 307.998C421.381 338.172 400.821 368.616 380.39 399.492C366.938 419.901 356.085 443.026 349.825 469.218C345.261 488.116 342.922 507.201 340.747 526.519C337.076 556.657 340.547 583.539 352.135 606.311C353.634 609.448 355.064 612.984 356.294 616.485C358.919 623.72 359.342 631.799 357.072 640.019C355.386 646.084 353.701 652.149 351.489 657.71C346.385 670.356 340.918 682.732 335.486 694.909C325.676 716.781 316.428 738.957 308.995 762.48C300.193 790.276 293.945 818.728 286.865 847.239C282.511 864.942 277.795 882.376 273.242 900.044C268.464 899.202 263.685 898.359 259.106 897.552C264.688 876.371 270.236 855.389 275.783 834.407C282.056 810.475 288.095 786.706 295.129 763.114C302.549 737.331 313.343 713.375 323.539 689.314C328.093 678.623 332.119 667.43 335.783 655.967C339.341 645.101 339.011 634.166 335.812 624.366C334.195 619.566 332.578 614.766 330.926 610.165C326.039 595.963 323.19 580.684 323.246 564.07C323.326 555.464 323.84 546.729 324.716 538.264C326.879 516.686 330.037 495.283 334.589 474.125C341.223 443.484 352.813 416.179 368.197 391.801C389.553 358.009 411.271 324.486 432.955 291.162C444.254 273.657 454.1 255.075 460.185 233.368C462.198 224.282 464.211 215.196 466.587 206.379Z" fill="#0A0A0A"/>
<path d="M429.752 199.885C436.522 201.078 443.291 202.272 450.061 203.466C449.581 205.023 449.101 206.58 448.82 208.172C443.87 229.259 436.87 249.164 426.767 266.88C413.045 291.141 398.926 315.331 384.876 339.124C375.252 355.282 365.171 370.539 355.747 386.732C341.252 411.883 330.26 439.293 323.462 469.7C317.74 495.167 313.809 520.949 310.875 546.906C307.835 573.461 309.631 598.201 316.194 621.523C317.226 624.989 318.023 628.618 318.855 632.048C321.609 643.206 321.202 654.833 317.503 666.494C314.319 676.4 310.573 686.001 307.027 695.637C299.769 714.676 291.949 733.41 285.453 752.788C270.061 799.33 260.068 847.85 247.593 895.316C244.208 894.72 240.823 894.123 237.439 893.526C242.225 872.205 247.011 850.883 251.797 829.562C261.743 785.959 273.775 743.34 290.011 702.488C293.347 694.046 296.355 685.136 299.164 676.191C303.202 663.768 304.184 651.216 302.073 638.735C301.03 633.01 300.221 627.121 299.376 621.431C295.695 599.232 294.847 576.096 298.192 552.469C301.397 529.637 304.999 506.876 309.563 484.489C312.804 468.437 317.076 452.361 321.675 436.753C330.559 407.33 343.437 380.868 357.497 355.846C374.193 326.363 390.888 296.88 406.037 265.687C413.799 249.611 421.033 233.032 426.019 215.234C427.295 210.329 428.406 205.189 429.752 199.885Z" fill="#A31B1A"/>
<path d="M391.126 193.074C397.895 194.267 404.665 195.461 411.434 196.655C410.463 200.999 409.457 205.541 408.286 209.85C402.084 233.384 393.339 255.034 383.271 276.04C371.272 301.014 358.909 325.72 346.745 350.461C334.242 375.963 322.828 402.272 314.19 430.303C302.404 468.04 294.927 506.947 288.611 546.264C284.797 570.22 283.877 594.07 285.919 617.416C286.67 625.963 287.456 634.311 288.407 642.893C289.686 655.433 288.54 667.75 284.9 680.243C282.875 687.069 280.886 693.696 278.697 700.288C272.259 720.497 265.26 740.402 259.384 760.916C249.904 793.723 242.977 827.186 236.214 860.883C234.155 871.397 232.096 881.912 230.236 892.461C227.647 892.005 225.258 891.583 222.67 891.127C224.565 880.379 226.46 869.63 228.554 858.917C237.809 807.598 248.62 756.76 264.106 707.361C267.945 694.903 271.585 682.41 273.503 669.203C275.456 655.797 274.645 642.929 274.034 630.097C272.823 606.692 272.842 583.299 276.62 559.542C279.627 540.165 283.429 520.928 287.197 501.89C293.152 472.771 300.432 444.295 309.304 416.101C319.171 384.593 331.579 354.97 344.023 325.148C354.969 299.166 365.715 273.149 376.133 246.664C383.04 229.616 387.862 211.585 391.126 193.074Z" fill="#0A0A0A"/>
<path d="M153.545 879.144C149.961 878.512 146.377 877.88 142.993 877.283C143.203 876.089 143.414 874.894 143.624 873.7C149.007 848.995 154.155 824.454 159.737 799.784C165.974 772.562 171.017 745.129 174.033 717.544C178.266 680.732 182.299 643.886 186.333 607.039C187.268 599.405 187.805 591.701 188.741 584.067C193.198 558.789 197.655 533.51 202.113 508.231C202.487 507.271 202.862 506.311 203.073 505.117C211.768 470.94 220.697 436.598 229.193 402.386C235.618 376.428 241.645 350.4 245.083 323.915C248.802 295.838 252.286 267.925 255.408 239.743C258.051 216.607 259.861 193.53 262.106 170.324C265.49 170.921 268.875 171.518 272.26 172.114C269.256 201.959 266.615 232.073 263.411 261.883C261.249 283.462 258.723 304.771 255.963 326.244C251.987 356.944 243.865 386.707 236.375 416.377C228.921 445.847 221.068 475.247 214.409 504.858C201.21 562.254 193.222 620.363 188.49 678.636C185.709 713.035 181.569 746.989 174.373 780.815C168.745 806.914 163.116 833.012 157.453 859.309C155.862 866.007 154.703 872.575 153.545 879.144Z" fill="#0A0A0A"/>
<path d="M216.462 890.238C214.073 889.816 211.684 889.395 209.295 888.974C209.47 887.978 209.88 886.819 210.055 885.824C212.383 871.458 214.875 857.326 217.203 842.959C223.754 803.478 231.101 764.138 240.44 725.148C247.917 693.219 252.666 661.629 252.871 629.033C252.934 593.745 257.12 558.362 265.359 523.283C276.125 477.362 288.612 432.155 301.697 387.053C314.642 342.748 327.751 298.677 340.496 254.336C346.851 232.265 351.848 209.75 355.088 186.719C361.26 187.808 367.432 188.896 373.804 190.019C370.749 203.847 368.222 218.178 364.208 231.632C356.565 256.348 347.962 280.691 339.522 305.267C328.004 339.152 315.69 372.897 304.734 407.086C293.1 442.797 284.347 479.632 276.156 516.772C271.955 535.939 268.117 555.375 266.106 574.928C263.909 596.706 263.374 618.366 263.905 639.804C264.343 660.61 261.559 681.053 256.117 701.437C251.085 720.663 246.216 740.123 241.582 759.418C233.555 793.303 227.518 827.539 221.645 862.008C219.797 871.328 218.147 880.683 216.462 890.238Z" fill="#0A0A0A"/>
<path d="M171.664 882.338C168.478 881.777 165.492 881.25 162.306 880.688C164.47 869.577 166.67 858.266 168.835 847.155C175.106 816.245 181.612 785.17 187.286 754.154C190.609 736.474 193.205 718.256 194.701 700.459C197.868 663.87 200.8 627.446 205.794 590.974C210.742 555.93 217.247 521.367 225.942 487.189C233.912 455.963 242.678 424.876 251.046 393.72C257.038 371.38 261.87 348.63 264.712 325.529C266.688 309.664 268.465 293.764 270.242 277.864C272.756 254.295 275.433 230.96 277.912 207.59C279.081 196.303 280.25 185.016 281.419 173.729C285.003 174.361 288.587 174.993 291.971 175.59C291.866 176.187 291.796 176.585 291.691 177.182C287.271 216.218 282.488 254.985 278.268 294.056C273.393 339.169 264.805 383.216 251.474 426.222C242.251 456.407 233.789 486.931 226.85 518.134C216.716 563.962 210.401 610.257 207.341 656.716C204.608 696.665 200.083 736.298 192.104 775.732C185.423 811.291 178.543 846.815 171.664 882.338Z" fill="#A31B1A"/>
<path d="M203.122 887.885C200.534 887.429 198.145 887.008 195.556 886.551C195.697 885.755 195.638 884.924 195.743 884.327C201.71 850.489 207.641 816.851 213.608 783.013C217.574 760.521 222.172 737.935 225.939 715.408C228.267 701.042 230.161 686.804 231.459 672.462C233.48 648.19 234.705 623.778 236.727 599.507C239.368 569.392 244.234 539.466 252.087 510.065C259.495 482.023 267.899 454.157 275.307 426.115C282.504 399.267 289.538 372.185 295.775 344.962C301.146 321.487 305.756 297.672 310.366 273.856C314.344 253.624 317.924 233.322 321.469 213.218C323.294 202.868 324.557 192.213 325.983 181.793C330.762 182.635 335.54 183.478 340.12 184.285C339.944 185.28 339.968 186.311 339.792 187.306C336.564 205.618 333.897 224.235 329.872 242.406C313.981 313.899 295.01 384.232 275.277 454.226C268.641 477.889 262.403 501.623 256.564 525.426C248.197 560.072 244.444 595.326 243.151 630.603C242.09 658.739 240.034 686.698 234.09 714.588C225.209 757.968 216.691 801.617 209.603 845.313C207.907 859.586 205.614 873.753 203.122 887.885Z" fill="#A31B1A"/>
<path d="M188.588 885.323C185.601 884.796 182.615 884.269 179.628 883.743C179.698 883.345 179.768 882.947 179.874 882.349C188.098 838.033 196.557 793.552 204.782 749.235C209.825 721.802 213.239 694.287 214.862 666.457C217.057 630.723 220.482 595 226.366 559.301C233.233 518.029 243.777 478.02 256.043 438.726C267.631 400.954 277.297 362.433 283.052 322.811C284.935 309.803 286.783 296.994 288.432 284.15C291.929 258.497 295.461 232.644 298.758 206.956C300.08 197.133 301.003 187.239 302.126 177.381C306.108 178.083 310.09 178.785 314.072 179.487C312.879 189.744 311.921 199.836 310.33 210.023C305.944 238.392 301.393 266.528 297.007 294.897C288.62 349.447 275.958 402.628 259.747 454.977C251.964 480.49 244.942 506.343 239.478 532.675C231.369 571.676 227.078 611.145 224.884 650.368C223.309 680.26 220.105 710.07 214.677 739.692C205.961 786.796 197.444 833.934 188.927 881.072C188.88 882.501 188.833 883.929 188.588 885.323Z" fill="#0A0A0A"/>
</g>
<defs>
<clipPath id="clip0_10_3641">
<rect width="926.9" height="1163.53" fill="white" transform="translate(0 912.819) rotate(-80)"/>
</clipPath>
</defs>
</svg>
