<svg width="960" height="178" viewBox="0 0 960 178" fill="none" xmlns="http://www.w3.org/2000/svg">
<path d="M70.3919 147.425C87.6122 147.425 101.207 138.949 110.573 121.997V130.776C108.156 140.463 103.322 148.636 95.4671 155.296C87.6122 161.956 77.3404 165.286 64.6518 165.286C44.4103 165.286 28.3984 158.02 17.2203 143.187C5.74011 128.354 0 108.98 0 85.3674C0 58.7279 6.04222 37.8401 18.4288 22.7041C30.8153 7.56803 45.9209 0 64.3497 0C85.7995 0 100.905 7.26531 109.968 22.0986V62.0578H102.718C101.811 55.7007 100.603 49.949 99.0924 44.1973C97.5819 38.4456 95.4671 32.6939 92.446 26.9422C89.4249 21.1905 85.7995 16.6497 80.9658 13.017C76.132 9.38436 70.694 7.87075 64.3497 7.87075C52.5673 7.87075 42.5977 13.6225 34.7428 25.1259C27.19 36.6293 23.2626 52.9762 23.2626 74.4694C23.2626 97.7789 27.4921 115.942 35.6491 128.656C43.8061 141.371 55.2863 147.425 70.3919 147.425Z" fill="black"/>
<path d="M164.046 82.6431V163.772C164.046 169.827 169.182 172.854 179.152 172.854V178H132.929V172.854C142.899 172.854 148.035 169.827 148.035 163.772V98.6873L129.908 111.099V102.925L157.702 82.6431H164.046Z" fill="black"/>
<path d="M244.408 95.6596H216.614C212.384 95.6596 209.061 96.5677 207.248 98.3841C205.436 100.2 203.623 102.925 202.717 106.558H196.976L199.998 82.3398H263.441V87.7888C258.305 92.6324 253.773 97.7786 250.148 102.622C246.523 107.466 243.502 112.612 241.085 118.061C238.668 123.51 236.855 128.051 235.647 132.289C234.136 136.527 233.23 141.37 232.928 147.425C232.323 153.479 232.021 158.323 232.021 161.955C232.021 165.588 231.719 170.734 231.719 177.697H213.593C212.988 147.425 223.562 119.877 244.408 95.6596Z" fill="black"/>
<path d="M312.685 22.0983V75.6799H381.566V22.0983C381.566 12.4112 375.826 7.56766 364.044 7.56766V2.72412H419.934V7.87038C408.152 7.87038 402.412 12.7139 402.412 22.401V143.489C402.412 153.176 408.152 158.02 419.934 158.02V163.166H363.742V158.02C375.524 158.02 381.264 153.176 381.264 143.489V84.1561H312.383V143.187C312.383 152.874 318.123 157.717 329.905 157.717V162.864H273.713V157.717C285.495 157.717 291.235 152.874 291.235 143.187V22.0983C291.235 12.4112 285.495 7.56766 273.713 7.56766V2.72412H329.905V7.87038C318.425 7.87038 312.685 12.7139 312.685 22.0983Z" fill="black"/>
<path d="M439.269 113.217V102.017C440.478 96.265 443.499 91.1187 448.635 87.1833C453.771 83.248 460.417 81.1289 469.178 81.1289C478.242 81.1289 485.492 83.5507 490.628 88.3942C495.764 93.2378 498.483 99.8976 498.483 108.374C498.483 114.428 496.368 120.483 492.441 126.537C488.514 132.591 482.471 139.251 474.919 146.819L457.094 164.377H480.659C488.816 164.377 494.556 160.139 498.181 151.36H503.619L498.785 178H438.061V172.551L460.115 149.544C474.616 134.711 481.867 121.694 481.867 111.098C481.867 106.255 480.357 102.017 477.335 98.9895C474.314 95.9622 470.085 94.4486 464.949 94.4486C458.907 94.4486 453.771 96.265 449.541 100.2C444.707 103.53 441.384 108.071 439.269 113.217Z" fill="black"/>
<path d="M553.165 82.6431V163.772C553.165 169.827 558.301 172.854 568.271 172.854V178H522.048V172.854C532.018 172.854 537.153 169.827 537.153 163.772V98.6873L519.027 111.099V102.925L546.821 82.6431H553.165Z" fill="black"/>
<path d="M706.034 164.983H701.502L609.056 27.5473V143.187C609.056 152.874 614.796 157.717 626.578 157.717V162.864H582.168V157.717C593.95 157.717 599.69 152.874 599.69 143.187V22.0983C599.69 12.4112 593.95 7.56766 582.168 7.56766V2.72412H619.328L696.668 118.666V22.0983C696.668 12.4112 690.928 7.56766 679.146 7.56766V2.72412H723.556V7.87038C711.774 7.87038 706.034 12.7139 706.034 22.401V164.983Z" fill="black"/>
<path d="M850.745 143.49C838.358 158.02 823.253 165.588 805.126 165.588C786.999 165.588 771.894 158.323 759.507 143.49C747.121 128.959 741.078 108.071 741.078 81.1292C741.078 54.4898 747.121 34.5102 759.205 20.585C771.29 6.96259 786.697 0 804.824 0C822.951 0 838.358 6.96259 850.443 20.585C862.527 34.2075 868.569 54.4898 868.569 81.1292C869.174 108.071 863.131 128.656 850.745 143.49ZM775.217 137.435C781.863 150.755 792.135 157.415 805.428 157.415C818.721 157.415 828.691 150.755 835.639 137.435C842.286 124.116 845.609 105.347 845.609 80.8265C845.609 32.3912 832.316 8.17347 805.428 8.17347C778.54 8.17347 765.247 32.3912 765.247 80.8265C764.945 105.347 768.268 124.116 775.217 137.435Z" fill="black"/>
<path d="M959.505 150.755H942.889V165.286C942.889 170.432 946.816 172.854 954.973 172.854V178H914.792V172.854C922.949 172.854 926.877 170.432 926.877 165.286V150.755H883.071V145.306C902.708 125.629 916.001 104.742 922.345 82.6431H939.868C933.825 103.834 919.022 124.116 896.062 143.793H926.877V129.565L938.659 118.97H942.889V143.49H959.505V150.755Z" fill="black"/>
</svg>
