<svg width="928" height="1165" viewBox="0 0 928 1165" fill="none" xmlns="http://www.w3.org/2000/svg">
<g clip-path="url(#clip0_10_3641)">
<path d="M87.2549 0.668457V15.8317H70.0752V30.9949L52.8954 30.9949V46.1582H35.7156V61.3214H18.1315L18.1315 76.4846H0.951752L0.951752 1164.19H841.549V1149.03H858.729V1133.87H875.908V1118.7H893.088V1103.54H910.268V1088.38H927.448V0.668457L87.2549 0.668457ZM833.464 1156.11H9.03636L9.03636 84.5717L833.464 84.5717V1156.11ZM850.846 1140.94H841.751V76.4846L26.2162 76.4846V69.4085L850.644 69.4085V1140.94H850.846ZM868.026 1125.78H858.931V61.3214L43.5981 61.3214V54.2452L868.026 54.2452V1125.78ZM885.408 1110.62H876.111V46.1582L60.7779 46.1582V39.082L885.206 39.082V1110.62H885.408ZM902.588 1095.25H893.492V30.9949L77.9576 30.9949V23.9188L902.386 23.9188V1095.25H902.588ZM919.767 1080.09H910.672V15.8317L95.3396 15.8317V8.75552L919.767 8.75552V1080.09V1080.09Z" fill="#0A0A0A"/>
<path d="M777.68 488.318C777.68 490.542 777.68 492.766 777.68 494.99C775.053 494.99 772.425 494.99 769.798 495.192C738.47 496.81 707.142 498.427 675.612 497.82C664.496 497.618 653.38 497.618 642.465 498.225C615.382 499.64 592.745 507.121 574.757 521.071C565.46 528.147 558.385 536.436 552.322 544.928C539.993 562.719 524.834 579.298 508.665 595.472C478.752 625.192 443.988 651.677 404.172 675.129C392.449 682.205 379.716 688.271 365.163 692.516C341.718 699.188 319.485 697.773 298.87 687.462C291.189 683.621 283.913 679.173 277.648 674.321C266.127 665.223 255.415 655.72 244.501 646.42C234.193 637.524 223.683 628.831 209.737 622.766C199.025 618.115 187.706 614.072 176.186 610.433C142.23 600.324 111.509 586.98 86.2445 568.178C78.1599 562.315 69.2669 557.058 60.778 551.397C60.778 539.671 60.778 527.945 60.778 516.218C61.9907 516.825 63.2034 517.229 64.4161 517.836C78.9684 526.327 93.9249 534.617 107.871 543.512C127.88 556.047 148.496 567.976 171.941 577.276C181.643 581.117 191.344 584.756 200.844 588.8C219.034 596.685 232.778 607.602 244.501 619.935C253.192 629.033 261.276 638.131 269.967 647.027C278.254 655.72 287.551 663.807 299.274 670.479C316.252 679.779 335.048 682.408 355.866 677.555C360.515 676.544 365.366 675.331 369.61 673.512C380.12 669.064 390.832 664.616 400.534 659.359C428.628 644.196 453.084 626.607 474.71 607.198C499.57 584.756 523.824 562.113 542.014 536.638C546.663 530.169 552.524 523.901 558.79 518.038C571.927 505.503 589.511 496.81 611.744 492.766C626.296 490.138 641.253 490.138 656.209 490.744C681.069 491.553 705.727 491.957 730.385 490.542C746.353 489.733 761.915 489.127 777.68 488.318Z" fill="#0A0A0A"/>
<path d="M60.7779 321.118C60.7779 316.468 60.7779 311.818 60.7779 307.168C61.9906 307.37 63.4054 307.572 64.6181 307.572C93.3184 309.594 122.019 311.818 150.719 313.84C186.696 316.266 221.662 320.714 256.021 328.599C286.136 335.675 311.805 346.592 331.208 363.98C335.048 367.417 339.697 370.651 344.548 373.684C355.26 380.154 364.557 380.154 375.269 373.684C380.322 370.651 384.768 367.214 389.013 363.777C396.289 358.116 403.161 352.051 410.437 346.39C422.564 337.292 436.914 330.62 454.7 327.386C472.891 324.151 491.283 323.14 510.08 324.757C539.589 327.184 566.672 334.26 592.139 344.166C611.137 351.647 629.934 359.532 647.922 368.023C679.048 382.782 713.206 390.465 751.001 391.071C759.894 391.273 768.585 391.273 777.478 391.476C777.478 394.913 777.478 398.35 777.478 401.787C772.425 401.787 767.373 401.989 762.32 401.787C746.959 401.18 731.598 400.978 716.439 399.563C688.548 397.137 663.283 389.454 639.838 379.143C621.445 371.056 602.042 364.384 582.033 358.723C551.918 350.029 520.59 346.39 488.049 349.019C459.147 351.445 434.489 359.33 415.086 374.493C407.001 380.76 399.119 387.432 390.832 393.497C384.971 397.743 379.109 401.989 372.237 405.628C362.132 410.885 352.834 410.278 344.143 404.011C339.899 400.978 336.463 397.541 333.027 393.902C325.751 386.623 319.081 378.941 311.805 371.662C300.082 359.936 284.317 351.445 264.712 346.795C248.139 342.953 231.363 339.112 214.385 336.079C185.887 331.025 156.581 329.812 127.476 327.386C105.243 325.566 83.0106 323.342 60.7779 321.118Z" fill="#0A0A0A"/>
<path d="M60.778 642.781C60.778 625.798 60.778 608.815 60.778 591.833C66.6394 595.876 72.7028 600.122 78.5641 604.165C90.0847 612.05 103.222 618.318 117.977 623.17C136.571 629.235 156.176 633.683 175.984 637.322C201.046 641.972 222.47 650.464 240.054 663.403C246.926 668.457 254 673.512 260.872 678.566C272.19 686.856 284.115 694.943 298.061 701.21C322.719 712.33 348.388 713.138 374.865 704.243C389.417 699.39 402.555 692.921 414.075 685.036C432.064 673.108 450.052 660.977 466.827 648.24C504.017 620.137 536.153 589.609 559.8 555.239C563.843 549.376 568.491 543.512 573.544 538.054C591.937 518.24 618.616 507.121 652.773 504.897C665.304 504.088 678.038 503.886 690.569 503.886C719.673 503.684 748.778 502.471 777.68 500.651C777.68 503.279 777.68 505.705 777.68 508.334C775.659 508.334 773.436 508.334 771.415 508.334C751.001 509.142 730.79 509.951 710.376 510.76C696.228 511.366 682.08 511.366 667.932 512.377C640.444 514.399 616.595 521.88 597.596 535.628C586.277 543.917 578.193 553.419 571.523 563.73C557.375 585.565 537.972 605.378 517.356 624.787C498.762 642.377 477.742 658.349 455.913 674.118C442.371 683.823 428.425 693.527 414.075 702.625C402.15 710.308 388.205 716.171 372.642 720.215C349.196 726.482 326.155 725.673 304.125 717.384C295.029 713.947 286.541 709.904 278.456 705.456C266.733 699.188 255.617 692.314 244.703 685.44C223.076 671.894 197.408 664.212 168.303 662.19C142.837 660.37 117.977 656.529 93.1164 652.081C81.5959 650.464 70.4795 647.835 60.778 642.781Z" fill="#0A0A0A"/>
<path d="M60.778 347.805C60.778 343.155 60.778 338.505 60.778 333.855C61.1822 333.855 61.5864 333.855 62.1928 333.855C98.5735 337.494 134.954 341.134 171.537 344.773C200.642 347.603 228.938 352.051 256.425 359.127C274.212 363.575 288.764 370.854 299.476 381.367C303.72 385.41 307.561 389.656 311.199 393.902C316.252 400.169 320.9 406.639 325.751 413.108C329.995 418.769 334.442 424.43 341.112 429.08C350.005 435.348 359.504 436.157 370.418 431.304C375.875 428.878 380.726 425.846 385.375 422.813C395.076 415.939 404.374 408.863 413.671 401.584C457.732 367.619 526.451 361.756 574.15 372.269C594.16 376.717 613.765 381.771 632.36 388.443C645.497 393.093 658.837 397.339 672.581 400.978C698.856 408.054 726.343 409.874 754.235 410.076C762.118 410.076 770 409.874 777.68 409.874C777.68 412.704 777.68 415.535 777.68 418.365C766.968 418.365 756.256 418.77 745.544 418.567C721.29 418.365 697.036 416.95 673.793 411.693C655.199 407.448 636.806 402.595 618.616 397.541C600.223 392.487 581.427 389.05 561.821 386.826C538.78 384.197 516.548 386.017 495.123 392.082C462.583 401.18 433.68 413.715 409.629 431.507C400.331 438.381 390.63 445.052 380.322 451.522C375.269 454.555 369.206 456.981 362.94 458.8C355.664 461.024 347.984 460.216 341.718 456.779C337.676 454.555 333.633 452.129 331.006 449.298C324.942 442.626 319.485 435.55 314.23 428.676C308.369 420.791 303.114 412.502 297.051 404.617C284.924 388.847 266.531 377.93 241.065 372.471C217.619 367.417 193.77 363.575 169.516 360.745C133.337 356.701 96.9566 352.051 60.778 347.805Z" fill="#0A0A0A"/>
<path d="M60.7778 492.766C60.7778 485.488 60.7778 478.411 60.7778 471.133C90.4888 481.848 119.795 493.372 146.677 507.323C167.495 518.038 187.302 529.764 207.716 540.884C232.778 554.43 252.181 571.008 266.733 590.417C274.616 600.93 282.7 611.241 291.189 621.552C295.838 627.416 301.901 632.672 308.975 637.12C320.092 643.994 333.027 646.622 347.781 644.803C351.622 644.196 355.462 643.59 359.302 642.781C370.418 640.153 380.322 636.311 390.023 631.863C409.831 622.563 427.415 611.646 442.573 599.111C472.284 574.445 500.58 549.173 524.026 521.475C530.696 513.59 538.174 505.907 546.461 498.629C560.407 486.701 578.597 478.614 601.234 476.996C611.744 476.188 622.658 476.188 633.37 476.996C669.347 479.827 705.323 480.029 741.3 477.805C753.224 476.996 765.351 476.794 777.276 476.188C777.276 478.209 777.276 480.433 777.276 482.455C764.341 483.062 751.203 483.668 738.268 484.477C713.408 485.892 688.548 486.499 663.687 485.285C651.763 484.679 639.636 484.072 627.509 484.072C596.787 483.87 571.927 492.159 553.333 508.536C545.854 515.208 539.184 522.284 533.323 529.764C522.005 543.512 510.282 557.058 496.538 569.795C481.582 583.745 467.231 598.1 450.658 611.241C430.446 627.011 408.618 641.77 382.545 653.294C371.833 658.146 360.313 661.988 347.579 664.009C331.814 666.436 317.464 664.212 304.933 657.338C301.497 655.518 298.465 653.496 295.434 651.272C286.136 644.398 279.062 636.513 272.19 628.224C264.106 618.318 256.223 608.613 247.734 598.706C235.607 584.554 219.64 573.03 199.429 564.134C174.569 553.217 151.528 540.682 129.093 527.54C108.679 515.41 87.0528 504.29 64.0116 494.586C63.6074 493.575 62.1926 493.372 60.7778 492.766Z" fill="#0A0A0A"/>
<path d="M777.68 367.215C777.68 371.662 777.68 376.312 777.68 380.76C764.341 380.356 751.001 380.356 737.662 379.547C706.536 377.526 679.25 369.034 654.39 356.297C624.477 341.134 593.351 327.386 560.002 315.862C529.887 305.551 498.357 301.507 464.806 304.135C444.393 305.753 424.989 309.19 409.629 318.894C402.15 323.747 395.481 329.205 388.609 334.462C382.949 338.708 377.694 343.156 371.631 346.997C363.142 352.253 354.653 352.86 344.548 348.816C339.899 346.997 335.452 344.773 331.208 342.549C319.283 336.282 307.358 330.014 293.615 325.768C266.329 317.277 238.033 310.403 208.726 306.157C180.228 302.114 151.123 300.698 122.221 298.879C101.807 297.666 81.5958 296.048 61.1821 294.431C61.1821 289.579 61.1821 284.726 61.1821 280.076C62.3948 280.279 63.8096 280.481 65.0223 280.481C89.6804 282.098 114.338 283.918 138.996 285.333C171.537 287.355 203.875 289.781 235.405 296.251C263.702 302.114 291.189 309.594 318.273 317.883C323.73 319.501 329.187 321.118 334.846 322.534C347.579 325.971 358.696 324.151 367.993 317.479C373.248 313.638 378.301 309.796 383.354 305.955C398.714 294.027 417.915 286.95 441.159 284.929C454.498 283.716 467.838 283.109 481.177 282.705C506.24 282.098 529.887 285.94 552.12 293.824C560.407 296.655 568.693 299.89 576.778 303.125C608.106 316.266 638.625 330.014 668.134 344.975C690.569 356.297 715.429 363.778 743.321 365.799C754.437 366.81 766.16 366.81 777.68 367.215Z" fill="#A31B1A"/>
<path d="M777.68 425.643C777.68 428.07 777.68 430.496 777.68 432.922C771.011 433.124 764.341 433.326 757.873 433.326C721.29 433.933 685.112 431.911 649.539 426.048C628.115 422.409 606.691 418.567 585.267 415.13C554.747 410.278 526.451 413.311 501.389 427.059C493.507 431.304 485.826 435.954 477.944 440.402C452.275 454.757 426.606 469.111 400.938 483.668C391.034 489.329 381.131 494.99 369.206 498.831C354.047 503.684 340.303 502.47 327.772 494.99C320.294 490.542 314.23 485.285 309.582 479.422C304.125 472.548 299.072 465.27 294.423 458.194C287.349 447.478 281.083 436.561 271.382 426.856C261.478 416.748 248.543 409.065 231.767 404.819C219.843 401.787 207.716 398.956 195.387 396.934C151.326 389.656 107.062 382.782 63.0012 375.908C62.1928 375.706 61.5865 375.908 60.778 375.908C60.778 370.854 60.778 366.001 60.778 360.947C61.9907 361.149 63.0012 361.351 64.2139 361.553C98.7756 366.203 133.135 371.056 167.697 375.706C191.547 378.941 215.194 382.378 238.033 388.039C256.628 392.689 271.786 400.371 281.892 411.895C288.36 419.174 293.817 426.856 299.274 434.539C305.539 443.233 311.199 452.331 317.666 461.024C321.507 466.281 326.357 470.931 332.623 474.974C342.324 481.04 353.037 482.455 365.163 479.018C370.216 477.603 375.269 475.581 379.716 473.357C386.79 469.718 393.864 465.877 400.129 461.429C429.032 441.413 461.977 425.037 497.145 410.48C517.154 402.191 538.78 399.158 562.024 400.776C574.959 401.787 587.692 403.202 600.021 405.83C615.584 409.267 631.147 412.502 646.71 415.939C669.549 420.791 692.792 424.835 716.844 425.643C737.257 425.643 757.469 425.441 777.68 425.643Z" fill="#0A0A0A"/>
<path d="M777.68 464.057C777.68 466.079 777.68 468.303 777.68 470.325C758.682 471.133 739.481 471.942 720.482 472.751C699.664 473.559 678.846 474.166 658.23 472.548C643.274 471.538 628.317 470.122 613.361 469.111C586.884 467.494 564.449 473.357 545.652 486.094C534.536 493.575 526.047 502.268 518.165 511.366C507.452 523.497 496.134 535.223 483.199 546.343C468.04 559.484 453.488 572.828 437.925 585.767C421.149 599.515 401.342 611.241 378.099 619.935C368.801 623.372 359.1 626.203 348.388 627.213C337.878 628.224 328.176 626.405 319.687 622.159C312.815 618.722 307.156 614.274 302.71 609.22C296.848 602.548 290.987 595.876 285.934 589.002C267.138 563.528 243.894 540.278 212.769 520.869C194.578 509.547 176.59 498.225 155.772 489.329C125.455 476.592 93.9248 465.472 61.1821 455.768C61.1821 450.713 61.1821 445.861 61.1821 440.807C62.3948 441.009 63.8096 441.211 65.0223 441.413C94.5311 448.692 123.232 457.385 151.528 466.685C164.261 470.931 176.59 475.177 187.908 481.04C210.949 492.968 230.555 506.918 247.532 522.688C265.521 539.469 282.498 556.856 297.657 574.85C304.327 582.735 311.199 590.619 320.9 597.291C331.814 604.772 344.952 607.4 359.908 604.367C367.993 602.75 375.875 600.324 383.152 597.493C402.353 590.215 418.926 580.511 433.074 569.189C462.179 545.736 491.485 522.486 515.537 496.405C523.824 487.509 533.525 479.22 545.652 472.548C558.79 465.27 573.746 461.024 590.724 460.418C603.053 460.013 614.978 461.227 626.903 462.642C657.826 466.483 689.154 467.09 720.482 465.877C739.279 465.27 758.479 464.664 777.68 464.057Z" fill="#0A0A0A"/>
<path d="M60.7778 428.474C60.7778 423.824 60.7778 419.174 60.7778 414.524C61.9905 414.726 63.4053 414.726 64.618 415.13C78.9682 418.163 93.3183 420.993 107.466 424.026C135.358 430.091 163.25 436.157 190.334 443.839C210.545 449.5 227.321 458.194 239.852 470.324C247.128 477.401 254.202 484.881 261.074 492.159C275.424 507.121 289.572 522.284 304.125 537.043C310.996 543.917 319.283 550.184 328.783 555.441C342.931 563.326 358.089 564.134 374.258 558.878C376.28 558.271 378.301 557.665 380.12 556.654C388.609 552.408 397.502 548.567 405.384 543.917C441.361 522.486 475.518 499.64 504.421 473.559C511.899 466.887 519.984 460.62 529.685 455.161C546.461 445.861 565.662 441.818 587.086 443.637C593.149 444.042 599.213 444.648 605.074 445.659C646.71 452.331 688.75 453.948 731.194 453.14C746.555 452.735 761.915 452.533 777.276 452.129C777.276 454.15 777.276 456.374 777.276 458.396C743.927 459.003 710.78 460.014 677.431 460.216C662.879 460.216 648.125 458.598 633.572 457.385C622.658 456.374 611.946 454.959 601.234 453.746C573.342 450.713 549.492 456.172 529.685 469.92C526.249 472.346 522.813 474.57 519.984 477.198C514.122 482.455 508.261 487.712 502.602 493.17C481.986 512.984 457.53 530.775 433.882 548.971C421.756 558.271 408.416 566.763 393.662 574.041C384.162 578.691 374.258 582.735 362.94 584.756C349.803 587.182 337.676 585.565 327.57 579.298C321.709 575.658 316.251 571.817 311.805 567.571C297.253 553.419 283.307 539.267 269.361 524.912C256.83 511.973 244.298 499.034 229.544 487.307C212.566 473.559 192.153 463.248 167.899 456.172C133.741 446.265 98.9776 437.37 63.6074 429.485C63.0011 428.676 61.7884 428.474 60.7778 428.474Z" fill="#0A0A0A"/>
<path d="M777.68 337.495C777.68 342.953 777.68 348.614 777.68 354.073C762.32 353.871 746.959 353.062 732.002 350.636C710.174 347.199 691.579 339.719 673.389 331.227C640.04 315.862 606.489 300.901 572.534 286.142C550.099 276.437 525.441 269.766 498.559 268.148C479.156 266.935 459.955 267.946 440.552 269.159C410.235 270.776 384.364 278.863 363.951 294.229C361.121 296.251 357.887 298.272 354.653 300.092C347.984 303.933 340.101 305.753 331.612 304.944C325.347 304.338 319.081 303.731 313.22 302.518C299.88 299.688 286.743 296.453 273.807 293.218C250.564 287.355 227.119 282.098 202.663 278.863C173.76 275.022 144.656 273.809 115.349 271.787C97.1587 270.574 79.1704 268.957 60.98 267.541C60.98 262.689 60.98 257.837 60.98 253.187C82.8084 255.007 104.435 256.826 126.061 258.646C150.719 260.667 175.175 262.487 199.631 265.318C226.31 268.148 251.777 274.618 277.243 280.481C288.562 283.109 300.284 285.131 312.209 286.748C323.528 288.366 334.24 286.142 343.335 281.29C347.781 278.863 352.228 276.437 356.472 274.011C369.61 266.733 384.162 261.274 400.534 258.444C409.022 257.028 417.713 256.017 426.202 255.411C447.828 253.794 469.455 253.187 491.081 253.996C522.409 255.209 551.311 261.881 577.991 272.798C614.978 287.961 651.763 303.529 688.346 319.097C707.546 327.184 727.556 333.653 749.991 335.877C759.288 336.282 768.585 336.686 777.68 337.495Z" fill="#0A0A0A"/>
<path d="M60.778 401.787C60.778 397.136 60.778 392.486 60.778 387.836C62.1928 388.039 63.8097 388.039 65.2245 388.443C94.7333 393.497 124.242 398.552 153.549 403.808C175.175 407.65 196.801 411.491 217.821 416.748C238.639 422.206 255.011 431.304 265.723 444.648C271.584 451.926 276.637 459.407 281.69 466.887C288.36 476.794 295.434 486.499 304.327 495.394C311.603 502.673 319.485 509.547 330.197 515.005C342.527 521.071 355.664 522.284 369.206 517.634C375.876 515.41 382.343 512.579 388.407 509.749C398.31 504.897 407.608 499.438 417.309 494.181C446.009 479.22 473.497 463.248 498.155 445.255C503.006 441.615 508.463 438.583 514.122 435.55C532.111 426.048 552.524 421.802 575.161 424.228C588.703 425.643 602.042 427.867 615.382 429.889C644.487 434.539 673.591 438.381 703.302 439.391C727.96 440.2 752.82 439.594 777.68 439.594C777.68 441.818 777.68 444.041 777.68 446.265C766.362 446.468 755.044 446.67 743.927 446.872C706.738 447.479 669.751 446.265 633.168 441.615C617.403 439.594 601.84 437.167 586.075 435.146C560.205 431.911 537.366 436.561 518.165 448.692C511.899 452.735 505.836 456.779 500.378 461.429C468.242 488.52 428.83 510.355 389.215 531.786C383.152 535.021 375.876 537.649 368.599 539.873C356.675 543.512 344.548 542.704 333.836 537.649C327.772 534.819 322.315 531.584 317.262 527.945C305.742 519.656 296.444 510.355 288.158 500.651C277.041 487.914 266.531 474.772 256.021 461.833C244.096 447.074 226.715 436.763 203.471 430.9C186.089 426.654 168.707 422.409 150.921 418.972C121.008 413.108 90.8932 407.65 60.778 401.787Z" fill="#0A0A0A"/>
<path d="M777.68 515.814C777.68 518.847 777.68 521.879 777.68 524.912C774.851 525.114 772.223 525.316 769.394 525.316C745.544 526.529 721.695 527.136 698.047 528.956C665.709 531.382 638.827 541.491 617.605 558.271C608.106 565.954 600.83 574.648 594.362 583.543C582.841 599.515 568.693 614.072 553.535 628.629C534.334 647.027 512.505 663.807 490.677 680.588C475.316 692.314 460.158 704.243 443.988 715.767C429.234 726.078 412.66 734.973 393.257 741.241C364.355 750.541 335.452 750.945 306.55 741.443C297.051 738.41 287.955 734.569 278.86 730.728C268.148 726.078 258.042 721.023 247.532 716.373C227.119 707.477 204.886 701.816 180.632 700.401C165.069 699.39 149.507 698.582 133.944 697.773C116.158 696.762 98.5735 697.369 81.1916 699.997C74.3197 701.008 67.4478 701.816 60.778 702.827C60.778 693.932 60.778 685.036 60.778 676.342C64.0119 676.747 67.0435 677.151 70.2774 677.353C81.5958 677.555 92.9143 677.555 104.031 678.162C127.476 679.375 150.921 681.194 174.367 682.61C200.237 684.025 223.683 690.09 244.299 700.806C254.606 706.264 264.914 711.521 275.424 716.98C286.136 722.438 297.253 727.493 309.38 731.334C331.208 738.006 353.441 738.613 375.876 733.154C390.226 729.717 402.959 724.46 414.884 717.991C428.628 710.712 441.159 702.423 452.679 693.325C478.55 673.107 505.633 653.698 528.877 632.066C548.886 613.465 567.885 594.461 581.629 573.434C584.863 568.582 588.501 564.134 592.543 559.484C612.552 536.234 642.668 523.295 681.878 520.262C705.525 518.442 729.577 518.038 753.427 517.027C761.511 516.218 769.596 516.016 777.68 515.814Z" fill="#0A0A0A"/>
<path d="M777.68 632.47C777.68 645.611 777.68 658.551 777.68 671.692C764.139 671.692 750.799 672.097 737.257 671.894C721.492 671.692 705.93 670.884 690.165 670.884C671.57 671.086 654.188 674.523 638.221 681.195C612.754 692.112 588.905 704.849 565.257 717.586C539.993 731.334 515.537 745.891 490.475 760.043C471.274 770.759 451.264 780.868 428.83 788.348C403.363 797.042 376.684 801.692 348.186 800.276C327.368 799.266 307.561 795.424 287.955 790.774C255.415 782.889 223.076 774.802 190.536 767.119C181.239 764.896 171.537 763.278 161.836 761.661C134.954 757.213 109.892 760.043 86.8509 770.556C81.798 772.78 76.7451 775.207 71.6922 777.43C68.0541 779.048 64.4161 780.867 60.778 782.485C60.778 779.048 60.778 775.611 60.778 772.174C61.7886 771.77 63.0012 771.365 64.0118 770.961C71.4901 767.726 78.9683 764.289 86.6487 761.054C108.073 751.956 131.114 749.328 155.772 752.563C178.207 755.393 199.833 759.841 221.257 764.896C244.905 770.556 268.148 777.026 291.593 783.091C310.794 788.146 330.4 791.987 351.015 792.796C377.29 793.605 401.746 789.157 424.989 781.07C446.212 773.589 465.21 764.087 482.794 753.372C503.006 741.039 522.409 728.302 542.418 715.767C570.512 698.38 598.606 681.195 626.903 664.01C639.434 656.327 652.773 649.453 667.326 643.59C694.005 632.874 721.897 627.213 753.225 631.055C761.309 632.066 769.596 632.066 777.68 632.47Z" fill="#0A0A0A"/>
<path d="M60.778 737.4C60.778 731.941 60.778 726.28 60.778 720.821C66.8415 719.406 72.7028 718.193 78.7662 716.575C97.7651 711.925 117.37 710.106 137.582 711.319C149.507 712.127 161.431 712.936 173.154 713.745C189.323 714.958 205.29 716.778 220.853 720.417C238.033 724.46 253.394 730.728 268.754 737.197C280.477 742.05 292.402 746.7 304.529 750.945C319.081 755.798 334.644 758.426 351.015 758.628C374.259 758.83 395.076 753.574 414.479 745.284C432.468 737.602 448.637 728.099 462.785 717.182C489.666 696.762 516.548 676.342 542.823 655.518C563.438 639.142 582.437 621.755 598.606 603.154C605.883 594.865 612.552 586.172 620.637 578.287C642.465 556.452 672.581 542.704 711.387 539.064C730.183 537.245 749.182 536.841 768.181 535.83C771.415 535.627 774.649 535.425 777.68 535.223C777.68 540.48 777.68 545.736 777.68 550.993C759.49 550.791 741.3 551.397 723.109 553.419C702.494 555.643 684.101 561.304 667.528 569.593C653.178 576.871 641.051 585.565 630.945 595.472C613.563 612.859 595.777 630.044 575.97 646.218C542.621 673.512 506.644 699.188 471.476 725.471C455.509 737.4 437.521 747.711 417.107 756C396.895 764.087 375.269 768.939 351.622 768.535C334.442 768.333 318.273 765.502 302.912 760.448C289.572 756.202 276.435 751.35 263.499 746.498C247.937 740.837 231.97 735.58 214.79 732.547C189.121 728.099 162.846 725.067 136.369 723.854C118.987 723.045 102.212 725.067 86.0424 729.717C77.5536 732.143 69.2668 734.771 60.778 737.4Z" fill="#0A0A0A"/>
<path d="M777.68 569.391C777.68 579.095 777.68 588.598 777.68 598.302C772.628 598.1 767.777 597.898 762.724 597.493C733.619 595.472 706.94 599.717 683.293 611.848C674.4 616.296 665.102 620.744 657.018 626C639.029 637.322 621.648 649.048 604.266 660.775C580.012 676.949 555.96 693.325 531.706 709.701C514.324 721.428 497.549 733.356 479.763 744.88C462.381 756.202 443.382 766.109 422.16 773.791C392.449 784.709 361.121 788.55 327.974 783.496C309.38 780.665 291.998 775.611 274.818 770.152C238.437 758.628 200.44 750.743 161.027 745.487C142.837 743.06 124.646 742.252 106.658 746.295C94.7333 748.924 84.0212 752.967 73.3091 757.415C69.2668 759.032 65.0224 760.852 60.778 762.469C60.778 758.426 60.778 754.382 60.778 750.339C68.8626 747.508 76.7451 744.476 84.8297 741.645C104.233 734.973 125.051 732.345 146.677 734.367C190.334 738.41 232.778 745.082 271.988 759.437C283.711 763.682 295.838 767.322 308.167 770.759C330.197 776.824 353.239 778.846 376.886 776.015C396.895 773.589 414.884 767.726 431.659 760.043C453.286 750.339 472.284 738.208 490.071 725.471C504.017 715.564 517.154 705.051 531.302 695.145C559.396 675.736 586.479 655.72 612.35 634.694C626.296 623.372 640.04 611.848 654.794 600.93C668.336 590.822 684.101 582.33 702.696 576.669C726.545 569.189 752.012 568.582 777.68 569.391Z" fill="#0A0A0A"/>
<path d="M777.68 300.092C777.68 306.966 777.68 313.84 777.68 320.714C776.063 320.512 774.447 320.31 772.83 320.31C751.203 319.096 730.385 315.659 711.185 308.785C684.91 299.485 658.635 289.781 632.764 280.076C615.18 273.405 598.404 266.126 580.82 259.657C553.535 249.75 524.632 243.685 493.507 242.269C467.434 241.056 441.361 241.663 415.288 243.28C388.609 244.898 364.557 250.963 342.729 261.476C339.495 263.094 336.059 264.509 332.825 265.924C322.315 270.574 310.794 272.191 298.667 270.574C288.36 269.159 278.254 267.137 268.148 265.317C248.139 261.476 228.331 257.028 208.12 253.996C159.612 246.919 110.094 245.504 61.1821 241.461C61.1821 238.024 61.1821 234.587 61.1821 231.15C83.0106 232.161 104.839 233.171 126.667 234.182C171.335 236.406 215.396 240.854 258.447 249.75C267.34 251.569 276.637 252.985 285.934 254.198C298.87 256.017 311.401 254.804 323.326 250.559C328.783 248.537 334.442 246.717 339.899 244.898C361.121 237.417 383.758 232.565 407.608 231.756C430.649 230.948 453.69 230.543 476.529 231.15C492.9 231.554 509.474 232.969 525.643 234.789C556.162 238.428 584.458 246.515 611.542 256.017C643.476 267.339 675.41 278.661 708.759 288.163C725.939 293.016 743.523 297.261 761.915 299.081C766.968 299.485 772.223 299.688 777.68 300.092Z" fill="#A31B1A"/>
<path d="M777.68 701.412C777.68 710.51 777.68 719.81 777.68 728.908C776.266 729.11 774.851 729.313 773.436 729.313C740.895 732.345 708.557 732.345 675.814 731.537C639.232 730.526 603.659 734.771 571.321 747.508C549.088 756.202 527.058 765.3 505.229 774.6C484.816 783.294 465.008 792.594 443.584 800.276C401.948 815.035 358.291 818.472 312.613 810.79C283.509 805.937 255.819 798.659 227.927 791.381C209.13 786.528 190.536 781.474 171.537 777.026C142.23 770.152 114.945 772.983 89.6805 785.315C82.4043 788.955 75.1282 792.392 67.852 796.031C65.6288 797.244 63.2034 798.255 60.778 799.266C60.778 796.435 60.778 793.605 60.778 790.774C61.9907 790.37 63.0012 789.965 64.2139 789.359C75.9366 784.102 87.4572 778.239 99.5841 773.387C114.541 767.322 131.114 765.098 148.496 766.917C158.198 767.928 167.899 769.141 177.196 771.163C196.397 775.409 215.194 780.463 234.395 785.113C259.457 790.976 284.317 797.446 309.784 802.5C347.984 810.183 385.779 809.172 422.766 798.255C441.563 792.796 458.945 785.72 475.518 777.431C502.804 764.087 529.685 750.339 556.769 736.793C574.353 728.1 592.341 719.81 611.946 713.138C634.785 705.456 658.635 701.008 684.303 702.019C695.824 702.423 707.546 703.03 719.067 702.827C738.268 702.423 758.075 701.817 777.68 701.412Z" fill="#0A0A0A"/>
<path d="M60.7778 814.024C60.7778 811.396 60.7778 808.97 60.7778 806.342C61.9905 805.735 63.2032 805.331 64.4159 804.724C77.3512 798.659 89.6803 791.987 103.02 786.528C121.412 778.846 141.826 777.43 162.846 781.07C180.834 784.102 197.61 789.157 214.587 794.211C246.32 803.309 278.254 811.801 311.805 817.057C342.931 822.112 374.056 823.122 405.384 817.664C427.415 813.822 447.828 807.353 467.636 799.872C489.262 791.785 510.686 783.294 532.515 775.409C553.939 767.524 576.374 761.256 600.425 757.415C623.669 753.776 647.114 751.552 671.166 753.372C691.983 754.989 712.801 755.191 733.821 753.574C748.576 752.563 763.128 750.945 777.882 749.53C777.882 756.202 777.882 763.076 777.882 769.748C768.989 770.961 760.096 772.174 751.203 773.185C723.918 776.42 696.43 778.239 668.942 775.004C648.529 772.578 628.721 773.791 608.712 776.015C569.097 780.463 531.504 788.752 495.528 801.085C482.188 805.735 468.646 809.981 455.105 814.227C440.148 818.877 424.585 822.718 408.618 825.346C374.258 830.603 340.303 828.986 306.55 823.325C273.403 817.664 242.075 808.97 210.949 799.67C197.003 795.424 182.855 791.583 168.303 788.348C145.06 783.091 122.827 785.113 102.211 794.009C98.3712 795.626 94.531 797.244 90.893 799.063C80.5851 803.916 70.6815 808.97 60.7778 814.024Z" fill="#0A0A0A"/>
<path d="M777.68 260.87C777.68 267.744 777.68 274.618 777.68 281.492C773.234 281.289 768.585 281.087 764.139 280.683C739.885 278.661 717.046 273.809 694.611 267.541C667.932 260.061 641.455 252.176 614.978 244.493C587.692 236.608 559.8 229.937 530.696 226.297C491.485 221.243 451.871 220.637 412.054 221.243C387.8 221.647 364.153 224.882 341.516 230.947C333.229 233.171 325.145 235.395 316.858 237.822C304.731 241.259 292.402 242.269 279.467 240.854C272.392 240.045 265.521 239.237 258.649 238.226C237.629 235.395 216.811 231.958 195.589 229.734C161.633 226.095 127.476 225.084 93.1164 224.276C82.4042 224.073 71.6921 223.871 60.98 223.871C60.98 221.243 60.98 218.817 60.98 216.189C71.8942 216.189 82.8085 216.189 93.7227 216.391C145.868 216.593 197.812 218.413 249.149 225.084C262.085 226.702 275.02 228.117 288.36 227.713C301.901 227.308 314.432 224.276 326.964 221.445C349.803 216.189 372.844 212.145 396.895 211.741C416.501 211.336 436.106 211.741 455.509 212.145C485.22 212.954 514.526 215.178 543.833 219.019C576.576 223.265 607.904 230.341 639.434 237.417C666.921 243.685 694.409 249.75 722.301 255.411C740.289 259.252 758.884 260.87 777.68 260.87Z" fill="#0A0A0A"/>
<path d="M60.7779 826.964C60.7779 824.74 60.7779 822.516 60.7779 820.292C61.7885 819.888 63.0011 819.281 64.0117 818.877C77.3513 812.407 90.2867 805.533 103.828 799.468C124.242 790.37 146.475 788.348 169.516 793.807C185.281 797.446 200.642 802.096 215.8 806.746C244.703 815.642 273.807 823.729 304.529 829.188C355.866 838.286 406.395 836.87 455.711 822.718C467.434 819.281 479.358 816.451 491.081 813.014C528.068 802.096 566.672 795.424 606.893 792.594C627.307 791.179 647.518 790.37 667.932 792.796C682.686 794.413 697.441 794.413 712.195 793.605C733.013 792.392 753.427 789.763 773.638 786.731C774.851 786.529 776.266 786.529 777.478 786.326C777.478 791.785 777.478 797.042 777.478 802.5C774.447 803.107 771.617 803.714 768.585 804.118C730.992 810.385 692.994 813.62 654.188 810.992C631.955 809.374 609.521 809.779 587.288 810.183C569.906 810.587 552.524 811.801 535.951 815.238C509.474 820.494 482.996 825.953 456.924 832.22C408.214 843.744 359.302 845.16 309.38 836.87C277.243 831.412 246.926 822.92 217.215 813.216C202.663 808.566 187.908 804.118 172.952 800.276C149.304 794.413 126.465 796.233 105.243 805.735C98.7756 808.566 92.3079 811.598 85.8402 814.833C77.3513 818.472 69.0646 822.718 60.7779 826.964Z" fill="#A31B1A"/>
<path d="M60.778 146.033C60.778 142.394 60.778 138.755 60.778 135.318C61.9907 135.318 63.2034 135.318 64.4161 135.318C89.6804 136.329 114.743 137.138 140.007 138.351C167.899 139.766 195.791 139.968 223.481 138.148C260.468 135.925 297.455 133.498 334.442 131.072C342.122 130.668 349.803 129.859 357.483 129.455C383.152 129.455 408.82 129.455 434.489 129.455C435.499 129.657 436.51 129.859 437.723 129.859C472.891 132.488 508.261 135.318 543.429 137.744C570.108 139.564 596.787 140.979 623.467 139.766C651.763 138.553 679.857 137.138 708.153 135.318C731.396 133.903 754.437 131.679 777.68 129.859C777.68 133.296 777.68 136.733 777.68 140.17C747.767 142.394 717.652 145.022 687.739 147.044C666.113 148.662 644.689 149.875 623.062 150.886C592.139 152.301 561.417 149.47 530.898 147.246C500.581 145.022 470.263 142.394 439.946 140.979C381.131 137.946 322.517 140.17 264.308 145.629C229.948 148.864 195.791 150.683 161.229 149.47C134.55 148.459 107.871 147.449 80.9895 146.438C74.1176 146.033 67.4478 146.033 60.778 146.033Z" fill="#0A0A0A"/>
<path d="M60.778 209.921C60.778 207.495 60.778 205.069 60.778 202.643C61.7886 202.643 63.0012 202.845 64.0118 202.845C78.5641 202.643 92.9143 202.643 107.467 202.441C147.485 202.036 187.504 202.441 227.523 204.867C260.266 206.686 292.2 205.878 324.336 200.419C359.1 194.354 394.672 192.332 430.649 194.354C477.742 196.982 524.43 201.43 571.119 206.484C616.999 211.539 662.677 216.795 708.557 221.647C731.396 224.074 754.437 225.084 777.68 224.276C777.68 230.543 777.68 236.811 777.68 243.28C763.532 242.674 748.98 242.674 735.034 241.056C709.365 237.821 683.899 233.576 658.23 229.532C622.86 224.074 587.49 217.806 551.918 212.954C514.729 207.697 476.933 205.473 438.935 203.856C419.33 203.047 399.523 202.643 379.918 204.058C358.089 205.675 336.665 208.91 315.645 213.156C295.232 217.199 274.616 218.008 253.596 216.189C233.789 214.571 213.779 213.156 193.972 211.943C159.208 209.921 124.444 209.921 89.4783 210.123C79.9789 209.921 70.4795 209.921 60.778 209.921Z" fill="#0A0A0A"/>
<path d="M777.68 963.029C777.68 965.657 777.68 968.487 777.68 971.116C776.265 971.318 775.053 971.318 773.638 971.52C756.66 971.924 739.885 972.733 722.907 972.935C688.548 973.542 654.188 974.755 620.03 977.585C584.862 980.618 549.897 983.448 514.728 986.077C480.571 988.705 446.818 987.088 413.267 981.224C379.918 975.361 347.175 967.881 314.432 960.4C282.498 953.122 250.564 946.248 217.619 941.396C180.632 936.139 145.262 938.565 111.509 950.291C101.605 953.728 91.2972 956.761 80.9893 959.794C74.3195 961.815 67.4476 963.837 60.5757 965.657C60.5757 961.815 60.5757 958.176 60.5757 954.335C77.5533 948.674 94.3289 942.811 111.307 937.15C117.37 935.128 123.433 933.106 129.699 931.489C157.591 923.604 186.291 921.987 215.396 928.052C240.862 933.309 266.329 938.767 291.391 944.63C330.602 953.728 369.812 963.029 409.629 970.711C442.371 976.979 475.518 980.416 509.676 977.99C535.344 976.17 560.811 973.946 586.479 972.127C614.371 970.105 642.061 967.881 669.953 966.466C692.994 965.253 716.237 965.455 739.278 964.646C752.214 964.444 764.947 963.635 777.68 963.029Z" fill="#0A0A0A"/>
<path d="M777.68 816.249C777.68 821.101 777.68 825.953 777.68 830.603C776.468 830.805 775.255 831.21 773.84 831.412C759.894 833.838 745.948 836.264 732.002 838.286C686.729 845.362 641.455 846.575 596.181 837.881C576.374 834.04 555.96 833.838 535.749 836.668C509.676 840.307 483.805 843.947 458.136 848.395C409.022 856.886 360.11 857.088 311.199 848.597C279.264 843.138 249.351 834.242 220.247 823.931C206.503 819.281 192.557 814.833 178.409 810.992C166.888 807.757 154.761 806.544 142.432 807.353C128.486 808.364 116.157 812.205 105.041 817.664C91.4994 824.133 78.3619 830.805 65.2244 837.477C64.0117 838.083 62.5969 838.69 61.3842 839.094C61.3842 837.073 61.3842 834.849 61.3842 832.827C66.0329 830.401 70.6815 828.177 75.5323 825.751C87.4571 820.09 99.1798 814.024 111.509 808.768C129.093 801.287 148.092 799.872 168.303 803.511C184.472 806.544 199.429 811.396 214.385 816.451C238.639 824.74 263.095 832.423 288.966 837.881C341.112 849.203 393.459 851.629 446.616 841.723C471.476 837.073 496.336 832.22 521.398 827.57C544.844 823.325 568.693 821.101 592.947 822.92C604.468 823.729 615.786 824.538 627.307 825.346C657.422 827.57 687.335 827.975 717.248 824.538C737.055 822.314 757.267 819.079 777.68 816.249Z" fill="#0A0A0A"/>
<path d="M777.68 949.078C777.68 951.505 777.68 953.931 777.68 956.357C747.969 957.57 718.056 958.581 688.345 959.794C671.974 960.4 655.401 960.198 639.029 961.209C602.446 963.635 566.066 966.668 529.685 969.7C492.9 972.733 456.721 971.116 420.947 964.242C374.056 955.144 328.176 945.035 282.7 933.511C260.063 927.85 237.224 921.987 214.385 916.528C191.142 910.867 167.697 911.271 144.251 916.326C129.295 919.561 115.349 924.211 101.807 929.467C88.2654 934.724 74.3195 939.576 60.5757 944.428C60.5757 940.991 60.5757 937.554 60.5757 934.117C74.1174 928.659 87.8612 923.2 101.403 917.741C115.349 912.08 129.901 907.228 145.464 903.791C168.707 898.534 191.546 898.534 214.183 904.802C220.045 906.419 226.108 908.037 231.969 909.654C297.253 929.265 364.557 945.035 433.882 956.559C458.743 960.805 484.007 963.635 509.676 962.018C536.557 960.4 563.438 958.581 590.117 956.559C616.797 954.537 643.274 952.92 670.155 952.92C694.813 952.92 719.673 951.909 744.331 950.898C755.852 950.696 766.766 949.685 777.68 949.078Z" fill="#A31B1A"/>
<path d="M60.778 164.431C60.778 161.197 60.778 158.164 60.778 154.929C72.0965 155.131 83.617 155.333 94.9355 155.536C126.465 156.344 158.197 157.355 189.727 157.557C207.716 157.76 226.108 157.153 243.894 155.536C280.477 152.301 316.858 148.864 353.643 147.449C389.013 146.236 424.181 146.64 459.349 149.268C491.485 151.694 523.622 154.929 555.758 157.76C578.799 159.781 602.042 160.59 625.286 159.377C641.253 158.568 657.22 157.557 673.187 156.547C696.834 154.929 720.28 153.514 743.725 151.897C755.044 151.088 766.362 150.279 777.68 149.47C777.68 153.11 777.68 156.749 777.68 160.186C777.074 160.186 776.67 160.186 776.064 160.186C736.853 162.612 697.845 164.634 658.635 167.262C613.361 170.295 568.491 169.486 523.824 163.825C492.496 159.984 460.966 156.951 429.032 155.536C382.141 153.514 335.453 155.333 289.168 160.388C249.351 164.634 209.535 167.06 169.314 166.049C133.135 165.645 96.9566 165.038 60.778 164.431Z" fill="#A31B1A"/>
<path d="M60.7779 196.375C60.7779 193.747 60.7779 191.321 60.7779 188.693C61.5864 188.693 62.3948 188.491 63.0011 188.491C97.3607 188.491 131.518 188.491 165.878 188.491C188.717 188.491 211.758 189.097 234.597 188.895C249.149 188.693 263.499 188.086 277.85 186.873C302.103 184.649 326.357 181.617 350.611 179.393C380.726 176.764 411.043 176.36 441.361 178.988C470.263 181.414 499.166 184.851 528.068 187.278C555.758 189.704 583.65 191.928 611.542 193.343C635.593 194.556 659.847 194.96 684.101 195.365C704.717 195.769 725.333 195.769 745.746 195.769C756.256 195.769 766.968 195.162 777.478 194.758C777.478 199.61 777.478 204.463 777.478 209.113C776.468 209.113 775.457 209.315 774.447 209.315C755.852 209.315 737.055 209.921 718.461 209.113C645.295 205.878 572.736 199.408 500.378 192.13C475.922 189.704 451.466 187.682 427.011 186.064C391.438 183.841 356.068 186.267 321.102 191.119C293.21 194.96 265.318 197.791 236.82 196.78C192.557 195.567 148.092 194.758 103.828 195.365C89.4782 196.173 75.1281 196.375 60.7779 196.375Z" fill="#A31B1A"/>
<path d="M60.7779 851.427C60.7779 849.405 60.7779 847.181 60.7779 845.16C70.8837 840.105 80.7873 834.849 90.8931 829.996C99.7861 825.751 108.679 821.707 118.179 818.068C134.146 812.003 151.528 810.385 169.112 814.024C180.43 816.451 191.748 819.281 202.461 822.718C220.449 828.379 237.831 835.051 256.021 840.712C318.273 859.716 382.747 866.388 450.254 857.29C474.912 853.853 499.772 850.821 524.632 847.788C551.918 844.351 578.799 845.766 604.872 852.438C613.765 854.662 623.264 856.077 632.562 856.886C657.018 859.312 681.474 858.908 705.525 855.673C729.779 852.236 753.629 847.586 777.478 843.34C777.478 847.788 777.478 852.438 777.478 856.886C776.266 857.088 774.851 857.29 773.638 857.492C762.32 859.716 751.203 862.143 740.087 864.366C708.759 871.038 677.027 873.06 644.284 871.443C628.924 870.634 614.169 868.612 599.819 864.569C577.991 858.301 554.949 856.279 531.504 858.301C504.623 860.525 477.539 863.153 450.658 865.984C401.544 871.24 353.238 869.016 305.741 859.514C275.626 853.449 247.734 844.351 220.045 834.444C207.513 829.996 194.78 825.953 181.643 822.314C158.4 815.844 135.561 817.057 114.136 826.155C103.828 830.603 93.9248 835.455 84.0211 840.105C76.3408 843.542 68.6604 847.384 60.7779 851.427Z" fill="#0A0A0A"/>
<path d="M60.778 181.616C60.778 178.584 60.778 175.551 60.778 172.518C61.1822 172.518 61.5864 172.518 62.1928 172.518C107.264 172.923 152.538 173.529 197.61 173.934C225.502 174.136 253.192 172.721 280.881 169.486C316.454 165.442 352.228 162.612 388.407 162.207C430.244 161.803 471.476 165.24 512.303 170.497C551.514 175.349 591.128 178.179 631.147 176.966C644.284 176.562 657.22 176.158 670.155 175.551C696.026 174.54 722.099 173.529 747.969 172.316C757.873 171.912 767.777 171.103 777.68 170.497C777.68 174.54 777.68 178.584 777.68 182.627C767.373 183.234 757.267 184.043 746.959 184.245C718.259 184.851 689.76 185.256 661.06 185.862C605.883 187.075 551.311 183.84 496.942 176.966C470.465 173.732 443.786 171.305 416.905 170.497C377.088 169.284 337.474 171.912 298.465 176.562C268.754 180.201 238.841 182.223 208.726 182.021C160.825 181.616 112.924 181.414 65.0224 181.212C63.6076 181.414 62.1928 181.616 60.778 181.616Z" fill="#0A0A0A"/>
<path d="M60.7779 925.222C60.7779 921.987 60.7779 918.954 60.7779 915.719C73.309 910.26 85.8401 904.6 98.3713 899.141C113.126 892.873 128.284 887.212 144.656 883.169C164.463 878.317 184.068 878.114 203.673 883.169C212.162 885.393 220.449 887.819 228.736 890.447C249.958 897.119 270.776 904.195 292.2 910.261C341.718 924.413 393.459 933.309 446.009 940.183C469.859 943.215 493.911 946.046 518.367 945.035C535.749 944.226 553.13 943.62 570.31 942.407C593.958 940.991 617.403 939.172 641.253 940.183C667.528 940.991 693.6 941.8 719.875 939.981C739.076 938.767 758.277 936.948 777.478 935.533C777.478 937.959 777.478 940.385 777.478 942.811C776.266 942.811 775.053 942.811 773.84 943.013C737.864 946.046 701.685 947.865 665.304 947.259C650.146 947.057 634.785 946.855 619.626 947.663C589.915 949.281 560.204 951.505 530.494 953.526C508.059 954.942 485.624 955.144 463.391 952.313C385.779 942.002 310.592 926.232 239.043 903.184C228.533 899.747 217.821 896.513 206.705 893.682C188.11 889.032 169.314 888.83 150.315 892.873C132.731 896.512 116.562 901.971 100.797 908.643C87.6592 913.9 74.3196 919.561 60.7779 925.222Z" fill="#0A0A0A"/>
<path d="M60.7778 863.558C60.7778 861.536 60.7778 859.312 60.7778 857.29C65.4265 855.066 70.0751 852.64 74.7238 850.416C88.4676 843.947 101.807 837.073 115.753 831.007C127.476 825.953 140.411 822.92 154.559 823.122C167.697 823.122 180.026 825.548 191.546 829.188C208.726 834.646 225.502 840.712 242.277 846.575C307.56 869.421 376.28 879.125 449.445 873.06C474.508 871.038 499.57 869.421 524.632 867.803C548.28 866.388 571.725 867.197 594.16 873.262C600.83 875.082 607.499 876.699 614.169 877.912C643.88 883.371 673.995 883.371 704.11 880.945C729.375 878.923 753.224 873.06 777.276 867.601C777.276 871.443 777.276 875.486 777.276 879.328C759.49 882.764 742.108 887.01 723.918 889.436C680.867 895.299 637.817 894.086 595.979 884.382C575.969 879.732 555.354 877.71 534.334 878.519C504.421 879.53 474.71 880.541 444.797 881.754C405.991 883.371 367.993 881.349 330.197 875.082C294.423 869.016 260.872 859.312 228.735 847.181C213.779 841.52 198.822 836.062 182.653 832.22C172.143 829.794 161.229 828.379 150.113 828.985C136.167 829.794 123.636 833.433 112.317 838.69C95.9459 846.17 80.1808 854.055 64.2137 861.738C63.4053 862.547 62.1926 862.951 60.7778 863.558Z" fill="#A31B1A"/>
<path d="M60.7779 907.228C60.7779 904.397 60.7779 901.567 60.7779 898.736C68.4583 895.299 76.3408 891.862 83.819 888.223C100.595 880.338 117.572 872.656 136.571 866.995C155.974 861.334 175.579 860.323 195.387 865.377C209.13 869.017 222.672 873.262 235.81 877.912C275.424 892.267 316.454 903.993 359.908 911.676C394.066 917.741 428.83 921.178 463.593 924.211C497.347 927.041 531.1 928.254 564.853 926.435C591.532 925.019 617.807 926.435 644.284 928.052C678.038 930.074 711.589 929.67 745.14 926.03C755.852 924.817 766.766 923.604 777.478 922.189C777.478 924.615 777.478 927.041 777.478 929.467C736.247 934.522 694.611 936.948 652.571 934.926C621.85 933.309 591.128 933.713 560.407 935.533C542.014 936.544 523.217 936.948 504.825 936.746C480.369 936.341 456.317 933.107 432.266 930.478C363.748 922.593 298.263 908.441 236.82 886.202C224.491 881.754 211.758 877.912 198.823 874.677C180.026 869.825 161.027 870.23 142.432 875.284C132.327 878.114 122.019 881.349 112.721 885.191C96.3501 891.862 80.383 899.343 64.2138 906.419C63.2032 906.419 61.9906 906.824 60.7779 907.228Z" fill="#A31B1A"/>
<path d="M777.68 889.234C777.68 892.469 777.68 895.906 777.68 899.141C776.063 899.343 774.446 899.545 772.83 899.95C720.886 910.867 668.336 912.485 615.18 905.004C592.139 901.769 568.895 899.141 545.248 898.939C509.069 898.736 472.689 898.332 436.51 897.726C403.363 897.119 370.823 894.289 338.888 888.425C300.284 881.551 263.904 870.634 228.938 857.492C215.8 852.438 202.258 847.788 187.908 844.351C167.09 839.297 146.677 839.903 127.274 846.979C117.976 850.416 108.679 854.055 99.9882 858.099C86.6486 864.164 73.9154 870.634 60.7779 877.104C60.7779 874.677 60.7779 872.251 60.7779 869.825C67.4477 866.59 74.1175 863.153 80.9894 860.121C94.5311 853.853 108.073 847.384 122.221 841.521C142.837 833.231 164.867 832.22 186.898 838.286C202.258 842.531 217.215 847.384 231.565 852.842C300.689 879.125 374.663 891.66 453.892 889.234C478.348 888.425 502.804 888.83 527.26 888.223C554.141 887.617 580.416 889.841 606.287 894.895C636.604 900.96 667.73 901.769 699.058 900.556C723.716 899.747 747.161 895.3 770.606 890.447C773.032 890.043 775.255 889.639 777.68 889.234Z" fill="#0A0A0A"/>
<path d="M60.7779 891.458C60.7779 888.83 60.7779 885.999 60.7779 883.371C61.7885 882.967 62.799 882.765 63.6075 882.36C71.2879 878.721 78.564 874.88 86.2443 871.443C99.5839 865.58 112.721 859.514 126.667 854.258C147.889 846.171 170.122 845.564 192.961 851.427C209.13 855.471 224.087 861.132 239.043 866.793C295.231 887.617 354.855 900.96 418.926 904.397C458.945 906.419 499.166 907.43 539.184 908.441C561.821 909.048 584.256 908.643 606.691 911.271C630.743 914.102 654.996 916.124 679.452 916.326C713.003 916.73 745.544 913.091 777.68 907.026C777.68 909.856 777.68 912.687 777.68 915.517C776.67 915.517 775.457 915.517 774.446 915.719C727.354 923.604 679.857 925.019 631.753 920.976C610.733 919.156 589.915 917.539 568.693 918.145C552.12 918.55 535.546 918.954 518.973 918.348C485.018 916.73 451.264 915.113 417.511 912.484C357.483 907.834 301.093 895.299 247.532 876.295C231.767 870.634 216.002 865.175 199.631 860.323C183.462 855.471 166.484 853.853 149.102 856.886C133.741 859.514 119.998 864.771 106.86 870.634C91.2973 876.901 76.1386 884.18 60.7779 891.458Z" fill="#0A0A0A"/>
<path d="M60.7778 975.563C67.8518 973.946 74.9259 972.329 81.9999 970.509C94.9353 967.072 107.871 963.837 120.604 959.996C148.092 951.909 176.59 950.696 206.099 952.718C242.479 955.346 277.243 962.22 311.805 969.498C343.739 976.17 375.673 982.64 407.81 988.705C420.543 991.131 433.882 991.94 446.818 993.557C447.424 993.557 447.828 993.759 448.435 993.962C424.383 993.962 400.129 993.962 376.077 993.962C374.865 993.759 373.854 993.355 372.642 993.153C350.005 988.705 327.166 984.055 304.529 979.607C273.201 973.34 241.671 968.892 208.928 967.476C176.59 966.061 145.06 967.679 114.338 975.563C96.7543 980.011 78.5639 983.448 60.5757 987.29C60.7778 983.448 60.7778 979.607 60.7778 975.563Z" fill="#0A0A0A"/>
<path d="M82.6062 994.164C85.8401 993.557 88.8718 992.749 92.1057 992.344C110.498 989.312 128.891 985.875 147.485 983.044C167.293 980.214 187.504 980.618 207.716 980.82C246.926 981.022 284.924 986.279 322.517 993.557C323.123 993.759 323.73 993.962 324.336 994.164C243.692 994.164 163.25 994.164 82.6062 994.164Z" fill="#0A0A0A"/>
<path d="M507.452 994.164C513.516 993.759 519.579 993.557 525.643 992.951C552.726 990.727 579.607 988.705 606.691 986.279C640.04 983.246 673.389 981.427 706.738 980.618C729.375 980.214 752.012 979.607 774.649 979.203C775.659 979.203 776.67 979.203 777.68 979.203C777.68 982.438 777.68 985.47 777.68 988.705C767.17 988.907 756.458 989.109 745.948 989.109C709.163 989.514 672.378 990.322 635.795 992.749C630.743 993.153 625.488 993.759 620.435 994.164C582.639 994.164 545.046 994.164 507.452 994.164Z" fill="#0A0A0A"/>
</g>
<defs>
<clipPath id="clip0_10_3641">
<rect width="926.9" height="1163.53" fill="white" transform="translate(0.951752 0.668457)"/>
</clipPath>
</defs>
</svg>
