<svg width="250" height="1115" viewBox="0 0 250 1115" fill="none" xmlns="http://www.w3.org/2000/svg">
<path d="M0.986392 827.827L15.9193 830.46L12.936 847.378L27.8689 850.011L24.8857 866.93L39.8185 869.563L36.8353 886.482L51.7682 889.115L48.7147 906.432L63.6476 909.065L60.6644 925.984L1131.85 1114.86L1277.82 287.036L1262.88 284.403L1265.87 267.484L1250.93 264.851L1253.92 247.932L1238.99 245.299L1241.97 228.381L1227.04 225.748L1230.02 208.829L1215.09 206.196L1218.07 189.277L146.884 0.398089L0.986392 827.827ZM1268.45 293.594L1125.29 1105.5L70.0324 919.426L213.193 107.523L1268.45 293.594ZM1256.53 273.843L1254.96 282.8L206.668 97.9583L65.0515 901.103L58.0828 899.875L201.243 87.9716L1256.5 274.042L1256.53 273.843ZM1244.59 254.291L1243.01 263.248L194.718 78.4065L53.1369 881.352L46.1683 880.124L189.329 68.2207L1244.59 254.291ZM1232.67 234.54L1231.06 243.696L182.768 58.8546L41.1873 861.801L34.2186 860.572L177.379 48.6688L1232.64 234.739L1232.67 234.54ZM1220.52 214.953L1218.94 223.91L170.854 39.1037L29.2377 842.249L22.269 841.02L165.429 29.117L1220.49 215.152L1220.52 214.953ZM1208.57 195.401L1206.99 204.358L158.904 19.5519L17.3231 822.498L10.3545 821.269L153.515 9.36607L1208.57 195.401Z" fill="#0A0A0A"/>
</svg>
